#Comment line ignore any data following # character 
#Hierarchical Translation and Rotation (.htr) file 
[Header]	
#Header keywords are followed by a single value 
FileType HTR		#Single word string
DataType HTRS		#Translation followed by rotation and scale data
FileVersion 1		#integer
NumSegments 84		#integer
NumFrames 2		#integer
DataFrameRate 30		#integer, data frame rate in this file
EulerRotationOrder ZYX
CalibrationUnits mm
RotationUnits Degrees
GlobalAxisofGravity Y
BoneLengthAxis Y
ScaleFactor 1.00
[SegmentNames&Hierarchy]
#CHILD	PARENT
MASTER GLOBAL
root MASTER
chest root
L_mid_tent01 root
R_mid_tent01 root
spine01 root
Bip01_Neck chest
L_humerus chest
R_humerus chest
weapon_bone chest
Bip01_Head Bip01_Neck
eye_left_bone Bip01_Head
eye_right_bone Bip01_Head
L_forearm L_humerus
L_front_hand L_forearm
L_weapon_bone L_forearm
L_front_hand01_01 L_front_hand
L_front_hand02_01 L_front_hand
L_front_hand03_01 L_front_hand
L_front_hand01_02 L_front_hand01_01
L_front_hand02_02 L_front_hand02_01
L_front_hand03_02 L_front_hand03_01
R_forearm R_humerus
R_front_hand R_forearm
R_weapon_bone R_forearm
R_front_hand01_01 R_front_hand
R_front_hand02_01 R_front_hand
R_front_hand03_01 R_front_hand
R_front_hand01_02 R_front_hand01_01
R_front_hand02_02 R_front_hand02_01
R_front_hand03_02 R_front_hand03_01
null_rope01_connect L_mid_tent01
Rope1_Seg01 null_rope01_connect
Rope1_Seg02 Rope1_Seg01
Rope1_Seg03 Rope1_Seg02
Rope1_Seg04 Rope1_Seg03
Rope1_Seg05 Rope1_Seg04
Rope1_Seg06 Rope1_Seg05
Rope1_Seg07 Rope1_Seg06
Rope1_Seg09 Rope1_Seg07
L_mid_hand01 Rope1_Seg09
L_mid_hand02 Rope1_Seg09
L_mid_hand03 Rope1_Seg09
null_rope02_connect R_mid_tent01
Rope2_Seg01 null_rope02_connect
Rope2_Seg02 Rope2_Seg01
Rope2_Seg03 Rope2_Seg02
Rope2_Seg04 Rope2_Seg03
Rope2_Seg05 Rope2_Seg04
Rope2_Seg06 Rope2_Seg05
Rope2_Seg07 Rope2_Seg06
Rope2_Seg09 Rope2_Seg07
R_mid_hand01 Rope2_Seg09
R_mid_hand02 Rope2_Seg09
R_mid_hand03 Rope2_Seg09
spine02 spine01
spine03 spine02
pelvis spine03
null_rope03_connect pelvis
null_rope04_connect pelvis
Rope3_Seg01 null_rope03_connect
Rope3_Seg02 Rope3_Seg01
Rope3_Seg03 Rope3_Seg02
Rope3_Seg04 Rope3_Seg03
Rope3_Seg05 Rope3_Seg04
Rope3_Seg06 Rope3_Seg05
Rope3_Seg07 Rope3_Seg06
Rope3_Seg08 Rope3_Seg07
Rope3_Seg09 Rope3_Seg08
R_rear_hand01 Rope3_Seg09
R_rear_hand02 Rope3_Seg09
R_rear_hand03 Rope3_Seg09
Rope4_Seg01 null_rope04_connect
Rope4_Seg02 Rope4_Seg01
Rope4_Seg03 Rope4_Seg02
Rope4_Seg04 Rope4_Seg03
Rope4_Seg05 Rope4_Seg04
Rope4_Seg06 Rope4_Seg05
Rope4_Seg07 Rope4_Seg06
Rope4_Seg08 Rope4_Seg07
Rope4_Seg09 Rope4_Seg08
L_rear_hand01 Rope4_Seg09
L_rear_hand02 Rope4_Seg09
L_rear_hand03 Rope4_Seg09
[BasePosition]
#SegmentName Tx, Ty, Tz, Rx, Ry, Rz, BoneLength
MASTER 0.000000 0.000000 0.000000 -90.000000 0.000000 0.000000 10.000000 
root 0.000000 0.000000 0.000000 0.000000 0.000000 0.000000 10.000000 
chest 0.000000 0.000000 0.000000 0.000000 0.000000 0.000000 10.000000 
L_mid_tent01 0.000000 0.000000 0.000000 0.000000 0.000000 0.000000 10.000000 
R_mid_tent01 0.000000 0.000000 0.000000 0.000000 0.000000 0.000000 10.000000 
spine01 0.000000 0.000000 0.000000 0.000000 0.000000 0.000000 10.000000 
Bip01_Neck 0.000000 0.000000 0.000000 0.000000 0.000000 0.000000 10.000000 
L_humerus 0.000000 0.000000 0.000000 0.000000 0.000000 0.000000 10.000000 
R_humerus 0.000000 0.000000 0.000000 0.000000 0.000000 0.000000 10.000000 
weapon_bone 0.000000 0.000000 0.000000 0.000000 0.000000 0.000000 10.000000 
Bip01_Head 0.000000 0.000000 0.000000 0.000000 0.000000 0.000000 10.000000 
eye_left_bone 0.000000 0.000000 0.000000 0.000000 0.000000 0.000000 10.000000 
eye_right_bone 0.000000 0.000000 0.000000 0.000000 0.000000 0.000000 10.000000 
L_forearm 0.000000 0.000000 0.000000 0.000000 0.000000 0.000000 10.000000 
L_front_hand 0.000000 0.000000 0.000000 0.000000 0.000000 0.000000 10.000000 
L_weapon_bone 0.000000 0.000000 0.000000 0.000000 0.000000 0.000000 10.000000 
L_front_hand01_01 0.000000 0.000000 0.000000 0.000000 0.000000 0.000000 10.000000 
L_front_hand02_01 0.000000 0.000000 0.000000 0.000000 0.000000 0.000000 10.000000 
L_front_hand03_01 0.000000 0.000000 0.000000 0.000000 0.000000 0.000000 10.000000 
L_front_hand01_02 0.000000 0.000000 0.000000 0.000000 0.000000 0.000000 10.000000 
L_front_hand02_02 0.000000 0.000000 0.000000 0.000000 0.000000 0.000000 10.000000 
L_front_hand03_02 0.000000 0.000000 0.000000 0.000000 0.000000 0.000000 10.000000 
R_forearm 0.000000 0.000000 0.000000 0.000000 0.000000 0.000000 10.000000 
R_front_hand 0.000000 0.000000 0.000000 0.000000 0.000000 0.000000 10.000000 
R_weapon_bone 0.000000 0.000000 0.000000 0.000000 0.000000 0.000000 10.000000 
R_front_hand01_01 0.000000 0.000000 0.000000 0.000000 0.000000 0.000000 10.000000 
R_front_hand02_01 0.000000 0.000000 0.000000 0.000000 0.000000 0.000000 10.000000 
R_front_hand03_01 0.000000 0.000000 0.000000 0.000000 0.000000 0.000000 10.000000 
R_front_hand01_02 0.000000 0.000000 0.000000 0.000000 0.000000 0.000000 10.000000 
R_front_hand02_02 0.000000 0.000000 0.000000 0.000000 0.000000 0.000000 10.000000 
R_front_hand03_02 0.000000 0.000000 0.000000 0.000000 0.000000 0.000000 10.000000 
null_rope01_connect 0.000000 0.000000 0.000000 0.000000 0.000000 0.000000 10.000000 
Rope1_Seg01 0.000000 0.000000 0.000000 0.000000 0.000000 0.000000 10.000000 
Rope1_Seg02 0.000000 0.000000 0.000000 0.000000 0.000000 0.000000 10.000000 
Rope1_Seg03 0.000000 0.000000 0.000000 0.000000 0.000000 0.000000 10.000000 
Rope1_Seg04 0.000000 0.000000 0.000000 0.000000 0.000000 0.000000 10.000000 
Rope1_Seg05 0.000000 0.000000 0.000000 0.000000 0.000000 0.000000 10.000000 
Rope1_Seg06 0.000000 0.000000 0.000000 0.000000 0.000000 0.000000 10.000000 
Rope1_Seg07 0.000000 0.000000 0.000000 0.000000 0.000000 0.000000 10.000000 
Rope1_Seg09 0.000000 0.000000 0.000000 0.000000 0.000000 0.000000 10.000000 
L_mid_hand01 0.000000 0.000000 0.000000 0.000000 0.000000 0.000000 10.000000 
L_mid_hand02 0.000000 0.000000 0.000000 0.000000 0.000000 0.000000 10.000000 
L_mid_hand03 0.000000 0.000000 0.000000 0.000000 0.000000 0.000000 10.000000 
null_rope02_connect 0.000000 0.000000 0.000000 0.000000 0.000000 0.000000 10.000000 
Rope2_Seg01 0.000000 0.000000 0.000000 0.000000 0.000000 0.000000 10.000000 
Rope2_Seg02 0.000000 0.000000 0.000000 0.000000 0.000000 0.000000 10.000000 
Rope2_Seg03 0.000000 0.000000 0.000000 0.000000 0.000000 0.000000 10.000000 
Rope2_Seg04 0.000000 0.000000 0.000000 0.000000 0.000000 0.000000 10.000000 
Rope2_Seg05 0.000000 0.000000 0.000000 0.000000 0.000000 0.000000 10.000000 
Rope2_Seg06 0.000000 0.000000 0.000000 0.000000 0.000000 0.000000 10.000000 
Rope2_Seg07 0.000000 0.000000 0.000000 0.000000 0.000000 0.000000 10.000000 
Rope2_Seg09 0.000000 0.000000 0.000000 0.000000 0.000000 0.000000 10.000000 
R_mid_hand01 0.000000 0.000000 0.000000 0.000000 0.000000 0.000000 10.000000 
R_mid_hand02 0.000000 0.000000 0.000000 0.000000 0.000000 0.000000 10.000000 
R_mid_hand03 0.000000 0.000000 0.000000 0.000000 0.000000 0.000000 10.000000 
spine02 0.000000 0.000000 0.000000 0.000000 0.000000 0.000000 10.000000 
spine03 0.000000 0.000000 0.000000 0.000000 0.000000 0.000000 10.000000 
pelvis 0.000000 0.000000 0.000000 0.000000 0.000000 0.000000 10.000000 
null_rope03_connect 0.000000 0.000000 0.000000 0.000000 0.000000 0.000000 10.000000 
null_rope04_connect 0.000000 0.000000 0.000000 0.000000 0.000000 0.000000 10.000000 
Rope3_Seg01 0.000000 0.000000 0.000000 0.000000 0.000000 0.000000 10.000000 
Rope3_Seg02 0.000000 0.000000 0.000000 0.000000 0.000000 0.000000 10.000000 
Rope3_Seg03 0.000000 0.000000 0.000000 0.000000 0.000000 0.000000 10.000000 
Rope3_Seg04 0.000000 0.000000 0.000000 0.000000 0.000000 0.000000 10.000000 
Rope3_Seg05 0.000000 0.000000 0.000000 0.000000 0.000000 0.000000 10.000000 
Rope3_Seg06 0.000000 0.000000 0.000000 0.000000 0.000000 0.000000 10.000000 
Rope3_Seg07 0.000000 0.000000 0.000000 0.000000 0.000000 0.000000 10.000000 
Rope3_Seg08 0.000000 0.000000 0.000000 0.000000 0.000000 0.000000 10.000000 
Rope3_Seg09 0.000000 0.000000 0.000000 0.000000 0.000000 0.000000 10.000000 
R_rear_hand01 0.000000 0.000000 0.000000 0.000000 0.000000 0.000000 10.000000 
R_rear_hand02 0.000000 0.000000 0.000000 0.000000 0.000000 0.000000 10.000000 
R_rear_hand03 0.000000 0.000000 0.000000 0.000000 0.000000 0.000000 10.000000 
Rope4_Seg01 0.000000 0.000000 0.000000 0.000000 0.000000 0.000000 10.000000 
Rope4_Seg02 0.000000 0.000000 0.000000 0.000000 0.000000 0.000000 10.000000 
Rope4_Seg03 0.000000 0.000000 0.000000 0.000000 0.000000 0.000000 10.000000 
Rope4_Seg04 0.000000 0.000000 0.000000 0.000000 0.000000 0.000000 10.000000 
Rope4_Seg05 0.000000 0.000000 0.000000 0.000000 0.000000 0.000000 10.000000 
Rope4_Seg06 0.000000 0.000000 0.000000 0.000000 0.000000 0.000000 10.000000 
Rope4_Seg07 0.000000 0.000000 0.000000 0.000000 0.000000 0.000000 10.000000 
Rope4_Seg08 0.000000 0.000000 0.000000 0.000000 0.000000 0.000000 10.000000 
Rope4_Seg09 0.000000 0.000000 0.000000 0.000000 0.000000 0.000000 10.000000 
L_rear_hand01 0.000000 0.000000 0.000000 0.000000 0.000000 0.000000 10.000000 
L_rear_hand02 0.000000 0.000000 0.000000 0.000000 0.000000 0.000000 10.000000 
L_rear_hand03 0.000000 0.000000 0.000000 0.000000 0.000000 0.000000 10.000000 
#Beginning of Data. Separated by tabs
#Fr	Tx	Ty	Tz	Rx	Ry	Rz	SF
[MASTER]
15 0.000000 0.000000 0.000000 0.001660 0.001660 0.001660 0.000000
16 0.000000 0.000000 0.000000 0.001660 0.001660 0.001660 0.000000
[root]
15 -16.502300 -20.332708 1469.580811 -71.889687 -16.080460 -91.884727 1469.814087
16 -16.502300 -16.045424 1466.511353 -72.342911 -17.170719 -92.297035 1466.691895
[chest]
15 -84.512650 -34.090519 0.000000 12.440515 1.345003 144.522781 91.129311
16 -84.512650 -34.090519 0.000000 14.046727 1.509237 144.904434 91.129311
[L_mid_tent01]
15 27.299185 22.178671 -249.918533 -18.607822 32.086201 36.190643 252.381485
16 27.299179 22.178709 -249.918549 -22.340925 29.751215 28.961983 252.381500
[R_mid_tent01]
15 23.228794 24.509907 226.238495 176.015884 -30.289089 55.215836 228.744751
16 23.228794 24.509907 226.238495 178.086929 -29.584606 52.081322 228.744751
[spine01]
15 -0.361383 -0.195265 0.000000 0.001920 0.001351 19.742390 0.410763
16 -0.361383 -0.195265 0.000000 0.001923 0.001347 19.952377 0.410763
[Bip01_Neck]
15 165.484543 71.581718 0.000119 176.643677 -1.657967 43.431911 180.302734
16 165.484543 71.581718 0.000119 176.643677 -1.657967 43.431911 180.302734
[L_humerus]
15 -13.983130 -135.272980 -120.471481 164.547226 56.260616 -102.970482 181.680161
16 -13.983130 -135.272980 -120.471481 160.841095 63.888988 -107.120529 181.680161
[R_humerus]
15 -13.983309 -135.273102 125.287651 -171.198669 -47.425323 -93.618736 184.909012
16 -13.983309 -135.273102 125.287651 -171.548737 -58.382198 -93.343056 184.909012
[weapon_bone]
15 235.964890 -300.705902 0.000000 0.000000 -89.951546 -128.212341 382.234833
16 235.964890 -300.705902 0.000000 0.000000 -89.951546 -128.212341 382.234833
[Bip01_Head]
15 213.444214 185.715561 11.776935 4.962490 2.797846 -43.898743 283.173798
16 213.444199 185.715561 11.776936 4.962490 2.797846 -43.898743 283.173767
[eye_left_bone]
15 -24.626970 125.451866 -64.772606 0.000000 -90.000000 -99.840431 143.318359
16 -24.626970 125.451866 -64.772606 0.000000 -90.000000 -99.840431 143.318359
[eye_right_bone]
15 -24.626970 125.451866 64.327362 0.000000 -89.965736 80.156380 143.117676
16 -24.626970 125.451866 64.327362 0.000000 -89.965736 80.156380 143.117676
[L_forearm]
15 322.776093 0.000000 -0.000119 0.000073 -0.002346 -93.547691 322.776093
16 322.776093 0.000000 -0.000119 0.000083 0.002346 -85.930779 322.776093
[L_front_hand]
15 241.149185 -0.042021 -3.300071 65.692123 -1.837627 -27.422924 241.171753
16 241.149185 -0.042021 -3.300071 147.145996 -1.836705 -27.424503 241.171753
[L_weapon_bone]
15 156.183838 0.000000 0.000000 0.000014 0.000007 0.000001 156.183838
16 156.183838 0.000000 0.000000 0.000014 0.000007 0.000001 156.183838
[L_front_hand01_01]
15 86.095154 20.947098 -0.655860 -0.366594 -0.477154 75.385574 88.609184
16 86.095154 20.947098 -0.655860 -0.366594 -0.477154 75.385574 88.609184
[L_front_hand02_01]
15 86.935165 -11.437475 24.513514 154.399796 -59.883835 -61.369587 91.046425
16 86.935165 -11.437475 24.513514 154.399796 -59.883835 -61.369587 91.046425
[L_front_hand03_01]
15 86.637497 -14.123976 -20.424902 -153.913849 58.118122 -62.702866 90.126129
16 86.637497 -14.123976 -20.424902 -153.913849 58.118122 -62.702866 90.126129
[L_front_hand01_02]
15 71.020905 -0.000179 0.000030 0.000334 -0.002323 -106.379684 71.020905
16 71.020905 -0.000179 0.000030 0.000334 -0.002323 -106.379684 71.020905
[L_front_hand02_02]
15 71.020927 -0.000119 0.000060 0.000334 -0.002323 -106.379684 71.020927
16 71.020927 -0.000119 0.000060 0.000334 -0.002323 -106.379684 71.020927
[L_front_hand03_02]
15 71.020905 -0.000060 0.000060 0.000334 -0.002323 -106.379684 71.020905
16 71.020905 -0.000060 0.000060 0.000334 -0.002323 -106.379684 71.020905
[R_forearm]
15 322.776428 -0.000060 0.000030 0.203394 -0.061007 -74.282951 322.776428
16 322.776428 -0.000060 0.000030 0.195931 -0.088376 -66.492645 322.776428
[R_front_hand]
15 238.847015 -0.006795 2.210259 -158.023743 -10.644946 -26.312069 238.857239
16 238.847015 -0.006795 2.210259 148.080246 -10.645763 -26.315893 238.857239
[R_weapon_bone]
15 155.664093 0.002503 -0.000030 0.003487 0.001180 -90.988930 155.664078
16 155.664093 0.002503 -0.000030 0.003487 0.001180 -90.988930 155.664078
[R_front_hand01_01]
15 87.624611 14.231146 22.918642 -154.633499 -59.950619 61.746044 91.683487
16 87.624611 14.231146 22.918642 -154.633499 -59.950619 61.746044 91.683487
[R_front_hand02_01]
15 89.356956 14.367283 -19.491137 154.602661 58.302849 63.744389 92.579636
16 89.356956 14.367283 -19.491137 154.602661 58.302849 63.744389 92.579636
[R_front_hand03_01]
15 87.286232 -22.307278 -0.143439 0.162155 -0.423168 -75.767921 90.091743
16 87.286232 -22.307278 -0.143439 0.162155 -0.423168 -75.767921 90.091743
[R_front_hand01_02]
15 71.020905 0.000060 0.000119 0.002323 -0.000334 106.381714 71.020905
16 71.020905 0.000060 0.000119 0.002323 -0.000334 106.381714 71.020905
[R_front_hand02_02]
15 71.020844 -0.000030 -0.000119 0.002323 -0.000334 106.381714 71.020836
16 71.020844 -0.000030 -0.000119 0.002323 -0.000334 106.381714 71.020836
[R_front_hand03_02]
15 71.020905 0.000000 0.000030 0.002323 -0.000334 106.381714 71.020905
16 71.020905 0.000000 0.000030 0.002323 -0.000334 106.381714 71.020905
[null_rope01_connect]
15 328.732483 0.000000 -0.000238 -123.087936 -67.778763 -174.723923 328.732483
16 328.732483 0.000000 -0.000238 -122.312309 -67.077751 -167.776825 328.732483
[Rope1_Seg01]
15 -0.000017 -0.000034 0.000067 -48.364849 29.117346 -96.109947 0.000077
16 -0.000015 -0.000031 0.000061 -42.123116 26.329670 -97.754189 0.000070
[Rope1_Seg02]
15 139.999863 -0.000179 0.000000 21.640471 1.955575 -10.275687 139.999863
16 139.999863 -0.000179 0.000000 14.128787 -3.192573 -4.004114 139.999863
[Rope1_Seg03]
15 139.999924 0.000060 -0.000060 37.245853 -2.728894 -8.126698 139.999924
16 139.999924 0.000060 -0.000060 11.073623 -4.258320 -1.793638 139.999924
[Rope1_Seg04]
15 139.999924 -0.000060 -0.000119 61.323166 -9.047392 -13.083262 139.999924
16 139.999924 -0.000060 -0.000119 14.829316 -4.886220 -3.789830 139.999924
[Rope1_Seg05]
15 139.999832 0.000119 -0.000060 11.255585 -6.281209 0.233185 139.999832
16 139.999832 0.000119 -0.000060 18.064062 -4.985964 -5.760206 139.999832
[Rope1_Seg06]
15 139.999954 0.000119 -0.000060 3.356993 -2.777787 0.791323 139.999954
16 139.999954 0.000119 -0.000060 8.724241 -3.642940 -1.849489 139.999954
[Rope1_Seg07]
15 139.999985 0.000060 0.000000 1.748999 -1.684199 0.589353 139.999985
16 139.999985 0.000060 0.000000 5.032027 -2.548316 -0.783768 139.999985
[Rope1_Seg09]
15 121.602913 0.000119 -0.000089 -89.793175 -1.359789 0.847147 121.602913
16 121.602913 0.000119 -0.000089 -89.793175 -1.359789 0.847147 121.602913
[L_mid_hand01]
15 103.859421 1.038730 8.195221 109.301483 -41.408253 -13.576799 104.187431
16 103.859421 1.038730 8.195221 109.056198 -40.604698 -13.201401 104.187431
[L_mid_hand02]
15 105.572853 -4.139662 -10.864139 -147.153671 31.943630 -38.737034 106.211075
16 105.572853 -4.139662 -10.864139 -146.713593 31.476528 -37.902313 106.211075
[L_mid_hand03]
15 104.641464 17.579376 -3.913581 -14.087292 12.528420 44.741467 106.179977
16 104.641464 17.579376 -3.913581 -14.267233 12.322316 43.898396 106.179977
[null_rope02_connect]
15 328.732849 0.000179 -0.000119 -136.362228 45.956978 -12.350784 328.732849
16 328.732849 0.000179 -0.000119 -136.374191 47.367851 -15.869774 328.732849
[Rope2_Seg01]
15 0.000095 0.000153 0.000043 69.859009 -6.927033 -69.687683 0.000185
16 0.000095 0.000153 0.000046 66.490021 -9.710823 -68.856911 0.000186
[Rope2_Seg02]
15 139.999741 -0.000060 -0.000119 -0.060176 3.963490 -1.786953 139.999756
16 139.999741 -0.000060 -0.000119 0.983400 3.480549 -2.383336 139.999756
[Rope2_Seg03]
15 140.000107 0.000030 0.000000 1.212896 2.033188 -1.718133 140.000107
16 140.000107 0.000030 0.000000 2.069638 1.569581 -2.166570 140.000107
[Rope2_Seg04]
15 139.999802 0.000000 -0.000060 1.389796 2.070950 -1.754158 139.999802
16 139.999802 0.000000 -0.000060 1.913051 2.220580 -2.217375 139.999802
[Rope2_Seg05]
15 139.999985 -0.000060 0.000119 -11.462509 11.825722 -1.574149 139.999985
16 139.999985 -0.000060 0.000119 -4.684732 9.359629 -2.423318 139.999985
[Rope2_Seg06]
15 139.999893 -0.000030 -0.000119 -25.394550 8.713589 0.851452 139.999893
16 139.999893 -0.000030 -0.000119 -7.502486 6.491059 -0.940661 139.999893
[Rope2_Seg07]
15 139.999893 0.000060 -0.000060 -24.498356 3.696180 2.070224 139.999893
16 139.999893 0.000060 -0.000060 -6.533262 3.345581 -0.179431 139.999893
[Rope2_Seg09]
15 121.338966 0.000089 -0.000060 33.793236 -1.359788 -0.847141 121.338966
16 121.338966 0.000089 -0.000060 33.793236 -1.359788 -0.847141 121.338966
[R_mid_hand01]
15 104.680779 11.144459 -10.335981 -31.399162 37.614391 47.725441 105.778534
16 104.680779 11.144459 -10.335981 -33.085678 36.191685 44.913235 105.778534
[R_mid_hand02]
15 104.070427 2.443552 8.231699 66.339699 -51.820030 19.540783 104.424065
16 104.070427 2.443552 8.231699 67.611237 -49.370296 17.897308 104.424065
[R_mid_hand03]
15 106.028137 -11.221827 -5.996406 -172.206848 13.802570 -57.446243 106.788818
16 106.028137 -11.221827 -5.996406 -171.571182 13.427420 -54.737041 106.788818
[spine02]
15 129.756927 0.001550 0.000119 -0.286985 -4.322892 -3.459294 129.756927
16 129.756927 0.001550 0.000119 -0.226958 -4.298907 -4.331288 129.756927
[spine03]
15 78.613991 0.083246 -4.898970 1.521569 4.515815 10.600163 78.766525
16 78.613998 0.083099 -4.898973 1.558651 4.441842 11.147154 78.766541
[pelvis]
15 169.435242 0.051022 0.000000 0.001971 0.016461 2.163051 169.435257
16 169.435242 0.051022 0.000000 -0.002672 -0.007337 3.273620 169.435257
[null_rope03_connect]
15 -1.257226 -2.466202 137.391083 8.866203 -72.014435 68.429321 137.418976
16 -1.257226 -2.466202 137.391083 8.639005 -72.489182 68.828430 137.418976
[null_rope04_connect]
15 -1.259640 -2.480268 -137.844437 8.866203 -72.014435 68.429321 137.872513
16 -1.259640 -2.480268 -137.844437 8.639005 -72.489182 68.828430 137.872513
[Rope3_Seg01]
15 -0.000033 0.000000 -0.000085 -130.548462 0.075759 -72.162216 0.000092
16 -0.000032 0.000000 -0.000092 -130.555359 0.711152 -74.074234 0.000097
[Rope3_Seg02]
15 139.999924 -0.000119 0.000060 1.195100 -8.386169 -7.052998 139.999924
16 139.999924 -0.000119 0.000060 0.751214 -6.831066 -4.994349 139.999924
[Rope3_Seg03]
15 139.999924 -0.000119 0.000119 0.700578 -6.435109 -9.405471 139.999924
16 139.999924 -0.000119 0.000119 0.211875 -3.940119 -6.536392 139.999924
[Rope3_Seg04]
15 139.999924 0.000119 0.000000 0.961388 -5.445114 -6.409935 139.999924
16 139.999924 0.000119 0.000000 0.258985 -3.319727 -4.435201 139.999924
[Rope3_Seg05]
15 139.999924 -0.000238 0.000060 6.065195 -5.551571 10.682217 139.999924
16 139.999924 -0.000238 0.000060 3.590571 -6.061299 7.884984 139.999924
[Rope3_Seg06]
15 139.999893 -0.000119 -0.000060 3.864061 -2.474001 11.012842 139.999893
16 139.999893 -0.000119 -0.000060 2.851192 -4.296586 9.132791 139.999893
[Rope3_Seg07]
15 139.999771 0.000060 -0.000119 1.738441 -1.393808 4.532604 139.999771
16 139.999771 0.000060 -0.000119 1.413297 -2.069075 3.776031 139.999771
[Rope3_Seg08]
15 139.999985 -0.000060 0.000000 1.185260 -0.764361 2.788555 139.999985
16 139.999985 -0.000060 0.000000 1.026366 -1.206087 2.286030 139.999985
[Rope3_Seg09]
15 90.185997 -0.000179 -0.000060 89.793228 -1.359877 -0.847183 90.185997
16 90.185997 -0.000179 -0.000060 89.793228 -1.359877 -0.847183 90.185997
[R_rear_hand01]
15 103.366196 -6.073594 -10.757982 -168.130341 21.777140 -49.871906 104.101845
16 103.366196 -6.073594 -10.757982 -167.001480 21.149061 -46.791374 104.101845
[R_rear_hand02]
15 100.509819 12.039542 -7.992327 -26.694445 29.195726 47.151855 101.543350
16 100.509819 12.039542 -7.992327 -28.108641 27.848612 44.189137 101.543350
[R_rear_hand03]
15 101.539970 5.215704 5.435467 81.113556 -50.109848 10.702383 101.819031
16 101.539970 5.215704 5.435467 81.609138 -47.214466 10.038949 101.819031
[Rope4_Seg01]
15 -0.000033 0.000000 -0.000085 48.979679 0.782250 -102.519516 0.000092
16 -0.000032 0.000000 -0.000092 49.099590 3.275256 -100.379372 0.000097
[Rope4_Seg02]
15 139.999985 0.000060 0.000119 0.356245 -10.110396 -10.460855 139.999985
16 139.999985 0.000060 0.000119 0.447946 -8.060496 -8.505853 139.999985
[Rope4_Seg03]
15 139.999924 0.000000 -0.000238 -0.546075 -10.132859 -8.801627 139.999924
16 139.999924 0.000000 -0.000238 -0.303042 -7.502339 -7.462874 139.999924
[Rope4_Seg04]
15 139.999985 0.000000 0.000119 -0.753974 -8.076372 -5.887571 139.999985
16 139.999985 0.000000 0.000119 -0.628711 -5.797594 -5.267136 139.999985
[Rope4_Seg05]
15 139.999802 -0.000060 -0.000119 -8.869774 -4.054317 -13.216244 139.999802
16 139.999802 -0.000060 -0.000119 -3.518731 -7.344176 -10.826493 139.999802
[Rope4_Seg06]
15 139.999924 0.000000 0.000060 -19.709673 0.484417 -18.783783 139.999924
16 139.999924 0.000000 0.000060 -9.583212 -7.477362 -14.940933 139.999924
[Rope4_Seg07]
15 139.999802 0.000000 0.000000 -14.183560 3.367565 -11.568582 139.999802
16 139.999802 0.000000 0.000000 -10.750206 -3.348303 -10.393428 139.999802
[Rope4_Seg08]
15 139.999924 0.000000 0.000119 -9.734731 3.579489 -6.265127 139.999924
16 139.999924 0.000000 0.000119 -10.508175 -0.818275 -6.636909 139.999924
[Rope4_Seg09]
15 90.185791 0.000060 0.000060 -135.617828 2.228885 0.850567 90.185791
16 90.185791 0.000060 0.000060 -135.617828 2.228885 0.850567 90.185791
[L_rear_hand01]
15 101.696655 -8.392275 -7.654577 -31.194277 -24.256094 142.819397 102.329041
16 101.696655 -8.392275 -7.654577 -30.608620 -25.023813 141.417831 102.329041
[L_rear_hand02]
15 102.726799 -1.568258 5.773216 82.562164 40.032185 171.334641 102.900848
16 102.726799 -1.568258 5.773216 82.398407 41.509426 171.081650 102.900848
[L_rear_hand03]
15 104.552910 9.721220 -10.420293 -164.408707 -19.357925 -140.691956 105.519653
16 104.552910 9.721220 -10.420293 -164.917755 -19.749290 -139.167572 105.519653
